<?xml version="1.0" encoding="UTF-8" standalone="no"?>
<svg
   xmlns:dc="http://purl.org/dc/elements/1.1/"
   xmlns:cc="http://creativecommons.org/ns#"
   xmlns:rdf="http://www.w3.org/1999/02/22-rdf-syntax-ns#"
   xmlns:svg="http://www.w3.org/2000/svg"
   xmlns="http://www.w3.org/2000/svg"
   xmlns:sodipodi="http://sodipodi.sourceforge.net/DTD/sodipodi-0.dtd"
   xmlns:inkscape="http://www.inkscape.org/namespaces/inkscape"
   id="svg2"
   viewBox="0 0 360 360"
   version="1.1"
   inkscape:version="0.48.4 r9939"
   width="100%"
   height="100%"
   sodipodi:docname="PiezaRompecabezas.svg">
  <sodipodi:namedview
     pagecolor="#ffffff"
     bordercolor="#666666"
     borderopacity="1"
     objecttolerance="10"
     gridtolerance="10"
     guidetolerance="10"
     inkscape:pageopacity="0"
     inkscape:pageshadow="2"
     inkscape:window-width="1920"
     inkscape:window-height="1018"
     id="namedview31"
     showgrid="false"
     inkscape:zoom="0.81570579"
     inkscape:cx="161.85"
     inkscape:cy="144.66"
     inkscape:window-x="-8"
     inkscape:window-y="-8"
     inkscape:window-maximized="1"
     inkscape:current-layer="layer1" />
  <defs
     id="defs4">
    <filter
       id="filter3776"
       color-interpolation-filters="sRGB">
      <feGaussianBlur
         id="feGaussianBlur3778"
         stdDeviation="2.7425" />
    </filter>
    <filter
       id="filter3789"
       color-interpolation-filters="sRGB">
      <feGaussianBlur
         id="feGaussianBlur3791"
         stdDeviation="2.9669533" />
    </filter>
    <linearGradient
       id="linearGradient3825"
       y2="471.14001"
       gradientUnits="userSpaceOnUse"
       x2="653.5"
       y1="286.64999"
       x1="470.09">
      <stop
         id="stop3811"
         stop-color="#960000"
         offset="0" />
      <stop
         id="stop3813"
         stop-color="#ff7878"
         offset="1" />
    </linearGradient>
    <filter
       id="filter3852"
       color-interpolation-filters="sRGB">
      <feGaussianBlur
         id="feGaussianBlur3854"
         stdDeviation="3.2665625" />
    </filter>
    <linearGradient
       id="linearGradient3860"
       y2="519.02002"
       gradientUnits="userSpaceOnUse"
       x2="379.98001"
       y1="326.67001"
       x1="191.25999"
       gradientTransform="translate(-2,0)">
      <stop
         id="stop3803"
         stop-color="#006400"
         offset="0" />
      <stop
         id="stop3805"
         stop-color="#78dc78"
         offset="1" />
    </linearGradient>
    <linearGradient
       id="linearGradient3862"
       y2="519.02002"
       gradientUnits="userSpaceOnUse"
       x2="379.98001"
       gradientTransform="matrix(-0.70711,-0.70711,0.70711,-0.70711,309.19,936.23)"
       y1="326.67001"
       x1="191.25999">
      <stop
         id="stop3841"
         stop-color="#c8c800"
         offset="0" />
      <stop
         id="stop3843"
         stop-color="#e6e600"
         offset="1" />
    </linearGradient>
  </defs>
  <g
     id="layer1"
     transform="matrix(-1,0,0,-1,526.90486,579.23306)">
    <g
       id="g3821"
       transform="translate(-14,-18)">
      <path
         id="rect3777"
         d="m 378.79,420.57 c 0,-8.0136 -6.5176,-14.5 -14.531,-14.5 -5.3276,0 -9.9767,2.8768 -12.5,7.1562 h -12.781 c 1.2426,-25.062 8.5915,-48.506 20.625,-68.875 0.0588,-0.0995 0.0973,-0.21319 0.15625,-0.3125 -20.113,-11.791 -43.216,-19.011 -67.906,-20.25 v 12.031 c 4.0495,2.5742 6.75,7.0962 6.75,12.25 0,8.0136 -6.5176,14.5 -14.531,14.5 -8.0136,0 -14.5,-6.4864 -14.5,-14.5 0,-5.3239 2.8817,-9.9755 7.1562,-12.5 v -11.781 c -24.716,1.2294 -47.837,8.4456 -67.969,20.25 0.0617,0.1038 0.12608,0.20855 0.1875,0.3125 12.033,20.369 19.382,43.813 20.625,68.875 h -12.812 c -2.5245,-4.2746 -7.1761,-7.1562 -12.5,-7.1562 -8.0136,0 -14.5,6.4864 -14.5,14.5 0,8.0136 6.4864,14.531 14.5,14.531 5.1538,0 9.6758,-2.7005 12.25,-6.75 h 13.062 c -1.2442,25.084 -8.603,48.557 -20.656,68.938 -0.019,0.0321 -0.0428,0.0618 -0.0625,0.0937 -0.0638,0.10348 -0.12572,0.20882 -0.1875,0.3125 20.126,11.82 43.253,19.038 67.969,20.281 v -11.781 c -4.2795,-2.5233 -7.1562,-7.1724 -7.1562,-12.5 0,-8.0136 6.4864,-14.531 14.5,-14.531 8.0136,0 14.531,6.5176 14.531,14.531 0,5.1555 -2.6983,9.6763 -6.75,12.25 v 12.031 c 24.761,-1.2251 47.936,-8.4437 68.094,-20.281 -0.0592,-0.0993 -0.10153,-0.20963 -0.15625,-0.3125 -0.0176,-0.033 -0.0436,-0.0618 -0.0625,-0.0937 -12.053,-20.381 -19.412,-43.854 -20.656,-68.938 h 13.031 c 2.5737,4.0517 7.0945,6.75 12.25,6.75 8.0136,0 14.531,-6.5176 14.531,-14.531 z"
         inkscape:connector-curvature="0"
         style="fill:url(#linearGradient3860);stroke:#003200" />
      <path
         id="path2994"
         d="m 274.94,327.88 c -21.302,1.6382 -41.281,7.8151 -59.031,17.625 11.293,20.159 18.226,43.094 19.438,67.531 a 3.7797,3.7797 0 0 1 -3.79,3.96 h -12.812 a 3.7797,3.7797 0 0 1 -3.25,-1.8438 c -1.869,-3.1647 -5.2899,-5.3125 -9.25,-5.3125 -5.9742,0 -10.719,4.7445 -10.719,10.719 0,5.9742 4.7544,10.75 10.719,10.75 3.8336,0 7.1552,-1.9996 9.0625,-5 a 3.7797,3.7797 0 0 1 3.1875,-1.75 h 13.062 a 3.7797,3.7797 0 0 1 3.7812,3.9688 c -0.20881,4.21 -0.58321,8.3855 -1.125,12.5 15.399,-1.5533 31.718,-7.6588 47.5,-21.531 18.283,-16.071 38.269,-21.562 57,-21.594 2.8065,-18.77 8.9837,-36.441 17.906,-52.375 -17.739,-9.8097 -37.711,-16.007 -59,-17.656 v 6.1875 c 4.0618,3.3556 6.75,8.3396 6.75,14 0,10.063 -8.2595,18.281 -18.312,18.281 -10.053,0 -18.281,-8.2282 -18.281,-18.281 0,-5.8438 2.8644,-10.963 7.1562,-14.312 v -5.875 z"
         inkscape:connector-curvature="0"
         style="opacity:0.20815998;fill:#ffffff;filter:url(#filter3776)" />
    </g>
    <g
       id="g3817"
       transform="translate(-149.09,-52.057)">
      <path
         id="path2992"
         d="m 562.14,282.42 c -8.0136,0 -14.5,6.5176 -14.5,14.531 0,5.3276 2.8768,9.9767 7.1562,12.5 v 12.781 c -25.062,-1.2426 -48.506,-8.5915 -68.875,-20.625 -0.0995,-0.0588 -0.21319,-0.0973 -0.3125,-0.15625 -11.791,20.113 -19.011,43.216 -20.25,67.906 h 12.031 c 2.5742,-4.0495 7.0962,-6.75 12.25,-6.75 8.0136,0 14.5,6.5176 14.5,14.531 0,8.0136 -6.4864,14.5 -14.5,14.5 -5.3239,0 -9.9755,-2.8817 -12.5,-7.1562 h -11.781 c 1.2294,24.716 8.4456,47.837 20.25,67.969 0.1038,-0.0617 0.20855,-0.12608 0.3125,-0.1875 20.369,-12.033 43.813,-19.382 68.875,-20.625 v 12.812 c -4.2746,2.5245 -7.1562,7.1761 -7.1562,12.5 0,8.0136 6.4864,14.5 14.5,14.5 8.0136,0 14.531,-6.4864 14.531,-14.5 0,-5.1538 -2.7005,-9.6758 -6.75,-12.25 v -13.062 c 25.084,1.2442 48.557,8.603 68.938,20.656 0.0321,0.019 0.0618,0.0428 0.0937,0.0625 0.10348,0.0638 0.20882,0.12572 0.3125,0.1875 11.82,-20.126 19.038,-43.253 20.281,-67.969 h -11.781 c -2.5233,4.2795 -7.1724,7.1562 -12.5,7.1562 -8.0136,0 -14.531,-6.4864 -14.531,-14.5 0,-8.0136 6.5176,-14.531 14.531,-14.531 5.1555,0 9.6763,2.6983 12.25,6.75 h 12.031 c -1.2251,-24.761 -8.4437,-47.936 -20.281,-68.094 -0.0993,0.0592 -0.20963,0.10153 -0.3125,0.15625 -0.033,0.0176 -0.0618,0.0436 -0.0937,0.0625 -20.381,12.053 -43.854,19.412 -68.938,20.656 V 309.2 c 4.0517,-2.5737 6.75,-7.0945 6.75,-12.25 0,-8.0136 -6.5176,-14.531 -14.531,-14.531 z"
         inkscape:connector-curvature="0"
         style="fill:url(#linearGradient3825);stroke:#320000" />
      <path
         id="path3784"
         d="m 562.12,286.28 c -5.9061,0 -10.625,4.74 -10.625,10.656 0,3.9284 2.1133,7.3068 5.25,9.1562 a 3.8873,3.8873 0 0 1 1.9062,3.3438 v 12.781 a 3.8873,3.8873 0 0 1 -4.0625,3.875 c -24.416,-1.2106 -47.318,-8.1363 -67.469,-19.406 -9.7612,17.679 -15.938,37.576 -17.594,58.781 h 6.0312 c 3.3755,-4.0714 8.3807,-6.75 14.062,-6.75 10.121,0 18.375,8.2952 18.375,18.406 0,10.1108 -8.264,18.375 -18.375,18.375 -5.8656,0 -11.005,-2.8544 -14.375,-7.1562 h -5.7188 c 0.2035,2.621 0.50362,5.2332 0.84375,7.8125 24.911,4.8882 56.449,2.6813 89.844,-20.594 36.817,-25.66 69.76,-26.241 94,-19.969 -2.5731,-17.538 -8.2537,-34.049 -16.5,-48.969 -20.185,11.317 -43.153,18.255 -67.625,19.469 a 3.8873,3.8873 0 0 1 -4.0625,-3.875 v -13.031 a 3.8873,3.8873 0 0 1 1.7812,-3.2812 c 2.9721,-1.888 4.9688,-5.1695 4.9688,-8.9688 0,-5.9061 -4.7501,-10.656 -10.656,-10.656 z"
         inkscape:connector-curvature="0"
         style="opacity:0.2;fill:#ffffff;filter:url(#filter3789)" />
    </g>
    <g
       id="g3856"
       transform="translate(0,22)">
      <path
         id="path3829"
         d="m 337.32,369.58 c -5.6665,5.6665 -5.6444,14.862 0.0221,20.528 3.7672,3.7672 9.0888,5.0204 13.899,3.7786 l 9.0377,9.0377 c -18.6,16.843 -40.374,28.224 -63.286,34.118 -0.11194,0.0288 -0.21955,0.0819 -0.33146,0.11048 5.8844,22.559 17.115,44.001 33.698,62.336 l 8.5074,-8.5074 c -1.0432,-4.6836 0.2448,-9.7907 3.8891,-13.435 5.6665,-5.6665 14.862,-5.6444 20.528,0.0221 5.6665,5.6665 5.6665,14.84 0,20.506 -3.7646,3.7646 -9.0914,5.016 -13.899,3.7786 l -8.3306,8.3306 c 18.346,16.608 39.798,27.854 62.38,33.742 0.0298,-0.11702 0.0583,-0.23661 0.0884,-0.35355 5.8941,-22.912 17.275,-44.686 34.118,-63.286 l 9.0598,9.0598 c -1.2374,4.8077 0.014,10.135 3.7786,13.899 5.6665,5.6665 14.84,5.6665 20.506,0 5.6665,-5.6665 5.6886,-14.862 0.0221,-20.528 -3.6443,-3.6443 -8.7514,-4.9323 -13.435,-3.8891 l -9.2366,-9.2366 c 18.617,-16.857 40.418,-28.251 63.352,-34.14 0.0361,-0.009 0.074,-0.0134 0.11045,-0.0221 0.11828,-0.0281 0.23655,-0.0588 0.35355,-0.0884 -5.8726,-22.589 -17.122,-44.047 -33.72,-62.402 l -8.3306,8.3306 c 1.2418,4.8103 -0.0114,10.132 -3.7786,13.899 -5.6665,5.6665 -14.862,5.6886 -20.528,0.0221 -5.6665,-5.6665 -5.6665,-14.884 0,-20.55 3.6455,-3.6455 8.7501,-4.9342 13.435,-3.8891 l 8.5074,-8.5074 c -18.375,-16.642 -39.866,-27.925 -62.491,-33.809 -0.0283,0.11208 -0.0764,0.22002 -0.11048,0.33145 -0.0109,0.0358 -0.0129,0.0745 -0.0221,0.11045 -5.8886,22.934 -17.283,44.736 -34.14,63.352 l -9.2145,-9.2145 c 1.0451,-4.6849 -0.24361,-9.7896 -3.8891,-13.435 -5.6665,-5.6665 -14.884,-5.6665 -20.55,0 z"
         inkscape:connector-curvature="0"
         style="fill:url(#linearGradient3862);stroke:#373200" />
      <path
         id="path3847"
         d="m 409.03,329.34 c -6.4327,21.914 -17.723,42.687 -33.938,60.594 a 5.5505,5.5505 0 0 1 -8.0625,0.21875 l -9.2188,-9.2188 a 5.5505,5.5505 0 0 1 -1.4688,-5.1562 c 0.65084,-2.9176 -0.12481,-5.9686 -2.4062,-8.25 -3.5358,-3.5358 -9.1517,-3.5358 -12.688,0 -3.543,3.543 -3.5262,9.0676 0.0312,12.625 2.3529,2.3529 5.6208,3.1112 8.5938,2.3438 a 5.5505,5.5505 0 0 1 5.3125,1.4688 l 9.0312,9.0625 a 5.5505,5.5505 0 0 1 -0.21,8.04 c -17.872,16.183 -38.612,27.411 -60.469,33.844 2.8283,9.3903 6.647,18.548 11.438,27.312 29.887,-1.5251 61.83,-9.8631 90.656,-31.375 29.842,-22.271 62.103,-28.018 91.688,-25.906 -5.0407,-10.507 -11.443,-20.521 -19.188,-29.812 l -2.2188,2.2188 c 0.44179,5.6501 -1.3638,11.458 -5.6562,15.75 -7.7827,7.7827 -20.609,7.8284 -28.406,0.0312 -7.7972,-7.7972 -7.7972,-20.64 0,-28.438 4.1784,-4.1784 9.7933,-5.9849 15.281,-5.6875 l 2.4375,-2.4375 c -15.23,-12.72 -32.44,-21.78 -50.53,-27.22 z"
         inkscape:connector-curvature="0"
         style="opacity:0.2;fill:#ffffff;filter:url(#filter3852)" />
    </g>
  </g>
  <metadata
     id="metadata29">
    <rdf:RDF>
      <cc:Work>
        <dc:format>image/svg+xml</dc:format>
        <dc:type
           rdf:resource="http://purl.org/dc/dcmitype/StillImage" />
        <cc:license
           rdf:resource="http://creativecommons.org/licenses/publicdomain/" />
        <dc:publisher>
          <cc:Agent
             rdf:about="http://openclipart.org/">
            <dc:title>Openclipart</dc:title>
          </cc:Agent>
        </dc:publisher>
        <dc:title>Puzzle</dc:title>
        <dc:date>2011-02-19T20:50:45</dc:date>
        <dc:description>Puzzle</dc:description>
        <dc:source>http://openclipart.org/detail/121249/puzzle-by-jabernal</dc:source>
        <dc:creator>
          <cc:Agent>
            <dc:title>jabernal</dc:title>
          </cc:Agent>
        </dc:creator>
        <dc:subject>
          <rdf:Bag>
            <rdf:li>clip art</rdf:li>
            <rdf:li>clipart</rdf:li>
            <rdf:li>pieza</rdf:li>
            <rdf:li>puzzle</rdf:li>
            <rdf:li>rompecabezas</rdf:li>
          </rdf:Bag>
        </dc:subject>
      </cc:Work>
      <cc:License
         rdf:about="http://creativecommons.org/licenses/publicdomain/">
        <cc:permits
           rdf:resource="http://creativecommons.org/ns#Reproduction" />
        <cc:permits
           rdf:resource="http://creativecommons.org/ns#Distribution" />
        <cc:permits
           rdf:resource="http://creativecommons.org/ns#DerivativeWorks" />
      </cc:License>
    </rdf:RDF>
  </metadata>
</svg>
