<?xml version="1.0" encoding="UTF-8" standalone="no"?>
<!-- Created with Inkscape (http://www.inkscape.org/) -->

<svg
   xmlns:dc="http://purl.org/dc/elements/1.1/"
   xmlns:cc="http://creativecommons.org/ns#"
   xmlns:rdf="http://www.w3.org/1999/02/22-rdf-syntax-ns#"
   xmlns:svg="http://www.w3.org/2000/svg"
   xmlns="http://www.w3.org/2000/svg"
   xmlns:xlink="http://www.w3.org/1999/xlink"
   xmlns:sodipodi="http://sodipodi.sourceforge.net/DTD/sodipodi-0.dtd"
   xmlns:inkscape="http://www.inkscape.org/namespaces/inkscape"
   sodipodi:docname="igrow.svg"
   inkscape:version="0.48.3.1 r9886"
   sodipodi:version="0.32"
   id="igrow"
   height="144"
   width="144"
   version="1.1">
  <defs
     id="defs3">
    <linearGradient
       id="linearGradient2821">
      <stop
         id="stop2823"
         offset="0"
         style="stop-color:#d3b900;stop-opacity:1;" />
      <stop
         id="stop2825"
         offset="1.0000000"
         style="stop-color:#fdffb8;stop-opacity:1.0000000;" />
    </linearGradient>
    <linearGradient
       gradientUnits="userSpaceOnUse"
       y2="46.700855"
       x2="64.275955"
       y1="81.668671"
       x1="73.541428"
       gradientTransform="matrix(0,-1.014928,0.985292,0,0.604734,95.89807)"
       id="linearGradient3593-1"
       xlink:href="#linearGradient2821-7"
       inkscape:collect="always" />
    <linearGradient
       id="linearGradient2821-7">
      <stop
         id="stop2823-4"
         offset="0"
         style="stop-color:#d3b900;stop-opacity:1;" />
      <stop
         id="stop2825-0"
         offset="1.0000000"
         style="stop-color:#fdffb8;stop-opacity:1.0000000;" />
    </linearGradient>
    <linearGradient
       gradientUnits="userSpaceOnUse"
       y2="80.056961"
       x2="6.1456947"
       y1="115.99729"
       x1="43.923878"
       gradientTransform="matrix(0,-1.1179321,0.894509,0,3.299789,96.38356)"
       id="linearGradient2827-4"
       xlink:href="#linearGradient2821-8"
       inkscape:collect="always" />
    <linearGradient
       id="linearGradient2821-8">
      <stop
         id="stop2823-8"
         offset="0"
         style="stop-color:#d3b900;stop-opacity:1;" />
      <stop
         id="stop2825-2"
         offset="1.0000000"
         style="stop-color:#fdffb8;stop-opacity:1.0000000;" />
    </linearGradient>
    <linearGradient
       gradientUnits="userSpaceOnUse"
       y2="46.700855"
       x2="64.275955"
       y1="81.668671"
       x1="73.541428"
       gradientTransform="matrix(0,-1.014928,0.985292,0,31.104734,89.89807)"
       id="linearGradient3593-4"
       xlink:href="#linearGradient2821-2"
       inkscape:collect="always" />
    <linearGradient
       id="linearGradient2821-2">
      <stop
         id="stop2823-3"
         offset="0"
         style="stop-color:#d3b900;stop-opacity:1;" />
      <stop
         id="stop2825-22"
         offset="1.0000000"
         style="stop-color:#fdffb8;stop-opacity:1.0000000;" />
    </linearGradient>
    <linearGradient
       gradientUnits="userSpaceOnUse"
       y2="14.364066"
       x2="98.987526"
       y1="58.779861"
       x1="112.68034"
       gradientTransform="matrix(0,-0.882844,1.132704,0,31.206877,89.612892)"
       id="linearGradient3601-6"
       xlink:href="#linearGradient2821-85"
       inkscape:collect="always" />
    <linearGradient
       id="linearGradient2821-85">
      <stop
         id="stop2823-7"
         offset="0"
         style="stop-color:#d3b900;stop-opacity:1;" />
      <stop
         id="stop2825-6"
         offset="1.0000000"
         style="stop-color:#fdffb8;stop-opacity:1.0000000;" />
    </linearGradient>
    <linearGradient
       y2="14.364066"
       x2="98.987526"
       y1="58.779861"
       x1="112.68034"
       gradientTransform="matrix(0.882844,0,0,1.132704,-52.725991,3.910849)"
       gradientUnits="userSpaceOnUse"
       id="linearGradient3193"
       xlink:href="#linearGradient2821-85"
       inkscape:collect="always" />
    <linearGradient
       gradientUnits="userSpaceOnUse"
       y2="80.056961"
       x2="6.1456947"
       y1="115.99729"
       x1="43.923878"
       gradientTransform="matrix(0,-1.1179321,0.894509,0,30.299789,89.38356)"
       id="linearGradient2827-8"
       xlink:href="#linearGradient2821-9"
       inkscape:collect="always" />
    <linearGradient
       id="linearGradient2821-9">
      <stop
         id="stop2823-2"
         offset="0"
         style="stop-color:#d3b900;stop-opacity:1;" />
      <stop
         id="stop2825-7"
         offset="1.0000000"
         style="stop-color:#fdffb8;stop-opacity:1.0000000;" />
    </linearGradient>
    <linearGradient
       y2="80.056961"
       x2="6.1456947"
       y1="115.99729"
       x1="43.923878"
       gradientTransform="matrix(1.1179321,0,0,0.894509,12.055902,-65.424855)"
       gradientUnits="userSpaceOnUse"
       id="linearGradient3227"
       xlink:href="#linearGradient2821-9"
       inkscape:collect="always" />
    <linearGradient
       gradientUnits="userSpaceOnUse"
       y2="80.056961"
       x2="6.1456947"
       y1="115.99729"
       x1="43.923878"
       gradientTransform="matrix(0,-1.1179321,0.894509,0,30.299789,89.38356)"
       id="linearGradient2827-5"
       xlink:href="#linearGradient2821-4"
       inkscape:collect="always" />
    <linearGradient
       id="linearGradient2821-4">
      <stop
         id="stop2823-31"
         offset="0"
         style="stop-color:#d3b900;stop-opacity:1;" />
      <stop
         id="stop2825-23"
         offset="1.0000000"
         style="stop-color:#fdffb8;stop-opacity:1.0000000;" />
    </linearGradient>
  </defs>
  <sodipodi:namedview
     inkscape:window-y="-8"
     inkscape:window-x="-8"
     inkscape:window-height="1018"
     inkscape:window-width="1920"
     inkscape:current-layer="layer1"
     inkscape:cy="66.113771"
     inkscape:cx="75.29391"
     inkscape:zoom="4"
     inkscape:pageshadow="2"
     inkscape:pageopacity="0.0"
     borderopacity="1.0"
     bordercolor="#666666"
     pagecolor="#ffffff"
     id="base"
     showgrid="false"
     inkscape:window-maximized="1" />
  <metadata
     id="metadata4">
    <rdf:RDF>
      <cc:Work
         rdf:about="">
        <dc:format>image/svg+xml</dc:format>
        <dc:type
           rdf:resource="http://purl.org/dc/dcmitype/StillImage" />
      </cc:Work>
    </rdf:RDF>
  </metadata>
  <g
     id="layer1"
     inkscape:groupmode="layer"
     inkscape:label="Layer 1"
     transform="translate(0,24)">
    <path
       sodipodi:nodetypes="cccccccccccccccccc"
       id="path1088"
       d="m 92.485329,47.583631 c 0.034,8.373002 3.172617,16.416369 7.103516,23.684739 3.640345,6.47714 9.062545,12.6569 16.484185,14.65243 6.55395,1.70466 13.78112,-0.83483 18.41877,-5.60875 4.68398,-5.01154 5.60478,-12.39629 4.6148,-18.94263 -1.20583,-7.617763 -4.26179,-14.890652 -8.35115,-21.399534 -3.78164,-5.847165 -9.36026,-11.130623 -16.45694,-12.328633 -6.03616,-0.921938 -11.64603,1.172586 -15.890273,5.507037 2.964533,2.21417 5.547583,4.124076 9.001593,5.494263 1.69929,0.195468 3.28074,-0.698759 5.1654,-0.09142 4.42271,0.863707 7.39531,4.703854 9.65782,8.312627 3.09666,5.405918 5.67643,11.318536 6.27416,17.579799 0.32755,3.5742 -0.47994,7.846661 -3.84273,9.787911 -2.77649,1.81105 -6.52827,1.43655 -9.1032,-0.56121 -4.93116,-3.668461 -7.621,-9.459611 -9.83747,-15.025015 -1.26759,-3.388151 -2.14776,-6.438307 -2.18037,-10.080837 -3.784631,-0.853087 -7.45259,-2.705071 -10.664958,-4.853958 -0.24094,1.404448 -0.383689,2.447662 -0.393153,3.87318 z"
       style="font-size:12px;font-style:normal;font-variant:normal;font-weight:bold;font-stretch:normal;writing-mode:lr-tb;text-anchor:start;fill:#aad400;fill-opacity:1;stroke:#000000;stroke-width:1pt;stroke-linecap:butt;stroke-linejoin:miter;stroke-opacity:1;font-family:Bitstream Vera Sans"
       inkscape:connector-curvature="0" />
    <path
       sodipodi:nodetypes="cccccccccccccccccccccc"
       id="path1089"
       d="m 73.216432,12.587601 c 0.199869,5.778743 2.173031,11.416839 5.470543,16.153682 4.208006,6.066789 9.575339,11.365677 15.745351,15.428031 1.599044,0.827311 3.577556,2.161643 5.468606,2.908995 4.049268,1.69635 8.527318,2.432734 12.906648,2.143362 3.40917,-0.281772 6.4023,-1.362518 8.02274,-4.451404 -2.12381,-2.605172 -4.79053,-5.414683 -8.34171,-5.169342 -1.72671,1.375221 -4.00723,0.437147 -5.77278,-0.570164 -7.366369,-3.696532 -13.570729,-9.334476 -18.802071,-15.637513 -1.718555,-2.161553 -3.381342,-4.589836 -4.41985,-7.226403 -0.648781,-1.735263 -0.554299,-3.956316 1.000972,-5.188573 1.510402,-1.934161 3.765277,-0.570765 5.37709,-1.02011 2.77098,-1.860939 3.09419,-5.386831 1.795421,-8.5821 C 87.896125,0.16156399 85.287016,-0.44141001 81.377286,0.51199799 76.817112,1.895341 73.232523,6.343539 73.216429,11.173209 c -0.01935,0.471213 -0.01706,0.943142 0,1.41439 z m 26.17615,5.324639 c 3.806108,3.377569 6.665058,5.858334 9.651668,9.982731 4.07461,-1.032026 8.22775,-0.109899 11.92511,1.844851 -2.79883,-8.527283 -8.58567,-14.958582 -15.23242,-20.769975 -1.05456,-1.138222 -1.88237,-1.629212 -1.97211,0.216297 -0.91581,3.089859 -2.00802,6.506253 -4.372248,8.726096 z"
       style="font-size:12px;font-style:normal;font-variant:normal;font-weight:bold;font-stretch:normal;writing-mode:lr-tb;text-anchor:start;fill:#668000;fill-opacity:1;stroke:#000000;stroke-width:1pt;stroke-linecap:butt;stroke-linejoin:miter;stroke-opacity:1;font-family:Bitstream Vera Sans"
       inkscape:connector-curvature="0" />
    <path
       sodipodi:nodetypes="cccccccccccccccccc"
       id="path1100"
       d="M 44.628515,-3.569719 C 44.481594,3.386787 48.96082,9.518056 54.328757,13.523128 60.381718,18.0032 68.398578,21.658712 75.698374,23.375 73.832653,20.593045 72.556547,13.487032 72.932389,10.531058 67.509467,8.540918 61.092833,6.076852 57.462734,1.388342 c -2.288221,-2.768907 -2.390283,-7.001994 -0.150297,-9.821573 2.65725,-3.412268 7.501781,-3.600927 11.439606,-3.062478 5.850596,0.935388 11.502973,3.084593 16.613915,6.064223 3.489625,2.167268 7.231116,5.28423099 7.592034,9.673733 0.25593,3.65365 -2.382198,7.185373 -5.95781,7.983328 -1.042081,0.770577 -3.306473,0.03046 -3.353219,1.072092 -0.448036,1.521156 1.507969,5.572883 4.349679,9.118502 5.95704,-0.531656 10.352536,-2.814003 13.262598,-8.132326 3.05434,-5.297666 3.77157,-12.135401 0.87035,-17.666582 -3.233376,-6.523318 -9.529692,-10.894186 -15.94893,-13.924316 -7.858841,-3.548718 -16.605216,-6.296672 -25.309996,-4.942183 -5.528197,0.800778 -10.805818,3.976973 -13.486506,8.972417 -1.64639,2.959489 -2.699213,6.306004 -2.755643,9.707099 z"
       style="font-size:12px;font-style:normal;font-variant:normal;font-weight:bold;font-stretch:normal;writing-mode:lr-tb;text-anchor:start;fill:#aad400;fill-opacity:1;stroke:#000000;stroke-width:1pt;stroke-linecap:butt;stroke-linejoin:miter;stroke-opacity:1;font-family:Bitstream Vera Sans"
       inkscape:connector-curvature="0" />
    <path
       sodipodi:nodetypes="cccccccccccccccccccccc"
       id="path1089-9"
       d="m 113.32499,55.880387 c -5.77874,0.19987 -11.41684,2.17303 -16.153682,5.47055 -6.066792,4.208 -11.365682,9.57534 -15.428032,15.74535 -0.82731,1.59904 -2.16164,3.57755 -2.90899,5.4686 -1.69635,4.04927 -2.43274,8.52732 -2.14337,12.906653 0.28178,3.40918 1.36252,6.4023 4.45141,8.02274 2.60517,-2.12381 5.41468,-4.79053 5.16934,-8.34171 -1.37522,-1.72671 -0.43715,-4.007233 0.57016,-5.772783 3.69654,-7.36637 9.33448,-13.57073 15.637514,-18.80207 2.16156,-1.71855 4.58984,-3.38134 7.22641,-4.41985 1.73526,-0.64878 3.95631,-0.5543 5.18857,1.00097 1.93416,1.5104 0.57076,3.76528 1.02011,5.37709 1.86094,2.77098 5.38683,3.09419 8.5821,1.79542 1.2145,-3.77126 1.81747,-6.38037 0.86406,-10.2901 -1.38334,-4.56018 -5.83154,-8.14477 -10.66121,-8.16086 -0.47121,-0.0194 -0.94314,-0.0171 -1.41439,0 z m -5.32464,26.17615 c -3.37757,3.80611 -5.85833,6.66506 -9.98273,9.65167 1.032026,4.074613 0.109899,8.227763 -1.844851,11.925113 8.527281,-2.79883 14.958581,-8.58566 20.769971,-15.232423 1.13823,-1.05456 1.62922,-1.88237 -0.21629,-1.97211 -3.08986,-0.91581 -6.50626,-2.00802 -8.7261,-4.37225 z"
       style="font-size:12px;font-style:normal;font-variant:normal;font-weight:bold;font-stretch:normal;writing-mode:lr-tb;text-anchor:start;fill:#668000;fill-opacity:1;stroke:#000000;stroke-width:1pt;stroke-linecap:butt;stroke-linejoin:miter;stroke-opacity:1;font-family:Bitstream Vera Sans"
       inkscape:connector-curvature="0" />
    <path
       sodipodi:nodetypes="cccccccccccccccccc"
       id="path1088-4"
       d="m 80.105834,72.39637 c -8.37301,0.034 -16.41637,3.17262 -23.68474,7.10352 -6.47714,3.64034 -12.6569,9.06254 -14.65243,16.48419 -1.70466,6.55395 0.83483,13.78111 5.60875,18.41876 5.01154,4.68398 12.39629,5.60478 18.94263,4.6148 7.61776,-1.20583 14.89065,-4.26179 21.39953,-8.35115 5.84717,-3.78164 11.130624,-9.36026 12.328636,-16.45693 0.92194,-6.03616 -1.172588,-11.64603 -5.507036,-15.89028 -2.21417,2.96453 -4.12408,5.54758 -5.49427,9.00159 -0.19546,1.6993 0.69876,3.28074 0.0914,5.16541 -0.8637,4.42271 -4.70385,7.3953 -8.31262,9.65781 -5.40592,3.09666 -11.31854,5.67643 -17.5798,6.27416 -3.5742,0.32755 -7.84666,-0.47994 -9.78791,-3.84273 -1.81105,-2.77648 -1.43655,-6.52827 0.56121,-9.10319 3.66846,-4.93117 9.45961,-7.62101 15.02501,-9.83748 3.38815,-1.26759 6.43831,-2.14775 10.08084,-2.18037 0.85309,-3.78463 2.70507,-7.45259 4.85396,-10.66495 -1.40445,-0.24094 -2.44767,-0.38369 -3.87318,-0.39316 z"
       style="font-size:12px;font-style:normal;font-variant:normal;font-weight:bold;font-stretch:normal;writing-mode:lr-tb;text-anchor:start;fill:#aad400;fill-opacity:1;stroke:#000000;stroke-width:1pt;stroke-linecap:butt;stroke-linejoin:miter;stroke-opacity:1;font-family:Bitstream Vera Sans"
       inkscape:connector-curvature="0" />
    <path
       sodipodi:nodetypes="cccccccccccccccccccccc"
       id="path1089-1"
       d="m 72.119601,92.57501 c -0.19987,-5.77874 -2.17303,-11.41684 -5.47054,-16.15368 -4.20801,-6.06679 -9.57534,-11.36569 -15.74536,-15.428035 -1.59904,-0.82731 -3.57755,-2.16164 -5.4686,-2.90899 -4.04927,-1.69635 -8.52732,-2.43274 -12.90665,-2.14337 -3.409174,0.28178 -6.402304,1.36252 -8.022744,4.45141 2.12381,2.60517 4.79053,5.414675 8.341714,5.169335 1.72671,-1.37522 4.00723,-0.43715 5.77278,0.57016 7.36637,3.69654 13.57073,9.33448 18.80207,15.63752 1.71856,2.16155 3.38134,4.58984 4.41985,7.2264 0.64878,1.73527 0.5543,3.95632 -1.00097,5.18858 -1.5104,1.93416 -3.76528,0.57076 -5.37709,1.02011 -2.77098,1.86094 -3.09419,5.38683 -1.79542,8.5821 3.77127,1.2145 6.38037,1.81747 10.2901,0.86406 4.56018,-1.38334 8.14477,-5.83154 8.16086,-10.66121 0.0194,-0.47121 0.0171,-0.94314 0,-1.41439 z m -26.17615,-5.32464 c -3.80611,-3.37757 -6.66506,-5.85833 -9.65167,-9.98273 -4.07461,1.03202 -8.227754,0.1099 -11.925114,-1.84485 2.79883,8.52728 8.585674,14.95858 15.232424,20.76997 1.05456,1.13822 1.88237,1.62921 1.97211,-0.21629 0.91581,-3.08986 2.00802,-6.50626 4.37225,-8.7261 z"
       style="font-size:12px;font-style:normal;font-variant:normal;font-weight:bold;font-stretch:normal;writing-mode:lr-tb;text-anchor:start;fill:#668000;fill-opacity:1;stroke:#000000;stroke-width:1pt;stroke-linecap:butt;stroke-linejoin:miter;stroke-opacity:1;font-family:Bitstream Vera Sans"
       inkscape:connector-curvature="0" />
    <path
       sodipodi:nodetypes="cccccccccccccccccc"
       id="path1088-3"
       d="m 52.23931,57.35583 c -0.034,-8.373002 -3.17262,-16.416369 -7.10352,-23.684736 -3.64034,-6.47714 -9.062536,-12.6569 -16.484176,-14.65243 -6.55395,-1.70466 -13.78112,0.83483 -18.41877,5.60875 -4.6839802,5.01154 -5.6047802,12.396287 -4.6148002,18.942627 1.20583,7.617763 4.26179,14.890652 8.3511502,21.399539 3.78164,5.84716 9.36026,11.13062 16.45694,12.32863 6.03616,0.92194 11.646026,-1.17259 15.890266,-5.50704 -2.96453,-2.21417 -5.54758,-4.12407 -9.001586,-5.49426 -1.69929,-0.19547 -3.28074,0.69876 -5.1654,0.0914 -4.42271,-0.86371 -7.39531,-4.70386 -9.65782,-8.312629 -3.09666,-5.405918 -5.67643,-11.318536 -6.27416,-17.579799 -0.32755,-3.5742 0.47994,-7.846658 3.84273,-9.787908 2.77649,-1.81105 6.52827,-1.43655 9.1032,0.56121 4.93116,3.66846 7.621,9.459608 9.83747,15.025012 1.267586,3.388151 2.147756,6.438307 2.180366,10.080837 3.78463,0.853087 7.45259,2.705071 10.66495,4.853957 0.24094,-1.40445 0.38369,-2.447661 0.39316,-3.873179 z"
       style="font-size:12px;font-style:normal;font-variant:normal;font-weight:bold;font-stretch:normal;writing-mode:lr-tb;text-anchor:start;fill:#aad400;fill-opacity:1;stroke:#000000;stroke-width:1pt;stroke-linecap:butt;stroke-linejoin:miter;stroke-opacity:1;font-family:Bitstream Vera Sans"
       inkscape:connector-curvature="0" />
  </g>
</svg>
